/* XPM */
static char *_0635ea16b4046449d93a5f262886c23weeGqIw6RMLiji7g[] = {
/* columns rows colors chars-per-pixel */
"64 64 53 1 ",
"  c #2F2F2F",
". c #313131",
"X c gray21",
"o c gray23",
"O c #3F3F3F",
"+ c gray25",
"@ c #464646",
"# c gray29",
"$ c gray30",
"% c #535353",
"& c gray33",
"* c #5B5B5B",
"= c #5D5D5D",
"- c #626262",
"; c #656565",
": c gray42",
"> c #6C6C6C",
", c gray45",
"< c gray46",
"1 c #797979",
"2 c gray49",
"3 c #838383",
"4 c gray52",
"5 c #8B8B8B",
"6 c gray56",
"7 c #929292",
"8 c #959595",
"9 c #9B9B9B",
"0 c gray62",
"q c #A2A2A2",
"w c #A4A4A4",
"e c gray67",
"r c gray68",
"t c gray69",
"y c gray71",
"u c gray73",
"i c gray74",
"p c #C3C3C3",
"a c #C6C6C6",
"s c gray79",
"d c #CDCDCD",
"f c gray82",
"g c gray84",
"h c #D8D8D8",
"j c #DDDDDD",
"k c gray88",
"l c gray90",
"z c gray92",
"x c #EFEFEF",
"c c #F3F3F3",
"v c #F6F6F6",
"b c #FBFBFB",
"n c white",
/* pixels */
"nnnnnnnnnnnnnnnnnnnnnnnnnnnnnnbccvbnnnnnnnnnnnnnnnnnnnnnnnnnnnnn",
"nnnnnnnnnnnnnnnnnnnnnnnnnnbnnbcjfzbnnnnnnnnnnnnnnnnnnnnnnnnnnnnn",
"nnnnnnnnnnnnnnnnnnnnnnnnnnnnnncsujbnnnnnnnnnnnnnnnnnnnnnnnnnnnnn",
"nnnnnnnnnnnnnnnnnnnnnbnnnnbnnnxpyjbbnnnbnnbnnnnnnnnnnnnnnnnnnnnn",
"nnnnnnnnnnnnnnnnnnnnbnnnnnnnbncptjvnbnnnnnbnnnnnnnnnnnnnnnnnnnnn",
"nnnnnnnnnnnnnnnnnnnnnnbnbvcvbbxiegbnbvbbnnnnnnnnnnnnnnnnnnnnnnnn",
"nnnnnnnnnnnnnbnnbnnbbnnvzdpdzblr7svvjsflvnbbnnnbnnnnnnnnnnnnnnnn",
"nnnnnnnnnnnnnnnnnnnnnbblu5>6alg7,ylhw26yjvbnnnnnbnbnnnnnnnnnnnnn",
"nnnnnnnnnnnnnbnnnnbnvcjy1@X%6tq:$5yw;O@,egxvnnnnnnnnnnnnnnnnnnnn",
"nnnnnnnnnnnnnnnnnbckfiw<@..X%,;+o&,-O..+;7uflcbbnbnbnbnnnnnnnnnn",
"nnnnnnnnnnnnnnbnbxfe5>*+.XX..oo.XXXXX.X.X$:5edlbbnnnbnnnnnnnnnnn",
"nnnnnnnnnnbnnnbvlp7=+o.....X.........X.XXXX+-4yhcbnbnnnnnnnnnnnn",
"nnnnnnnnnnbnbbbli3%o....X..XX..XX..X..X..X..X@>egvnnnnnnnnnnnnnn",
"nnnnnnnnnnnnbnvd4#..X.XX.XX..XX.X.X..X.XX..X..o:tzbbnbnnnnnnnnnn",
"nnnnnnnnnbbnbnvd4@...X............X.XX....X...X-elbnnnnnnnnnnnnn",
"bnbnnnnnnnnnnbbly1@.X.X.XX.XX.XXX..X..X..X.XXo=8sxnnnbnnnnnnnnnn",
"nnbnnnnnnbnnbnbvjq*X.X.XX.XX..X..X..X..X.XX..@5sxbnnnbnnnnnnnnnn",
"nnnnnnnnnnnbbnnnxt;. .............X...X......%0knnbbnnnnnnnnnnnn",
"bnnnnnnnnnnnnnbvzp4$. .XX..o@@oX.XO@o.....  O,ylvbbnbnnnnnnnnnnn",
"vnnbbnnnnnbnbvkgddy5;*-,:#.@>,#..O=:%XO%=%#%<wsfglcbnnnnnnnnnnnn",
"cnbnnnnnnnnnvjr66rppyryiw:o=76&X.@<8<O&6wq9quay98rgcbnnnnnnnnnnn",
"vbnnnnbnbnbvjr,@@:0flzzzs3$4t9%. +2r9&:tkljjhy2%#:0fcnnnbnnnnnnn",
"bnnnnnnnnnvkt,O  o,yzbnbjq<wp8#. o1uu23acbbxd5#. o-0gvbbnnbnnnnb",
"bnnnnnbnnvkr,+.X. $9jbnbcstdf7#..o,igyyjbnblr-....o;whvnbnnnnnnn",
"nbnnnnnbxge,+.X...O2acnnvxlxkw&. o<axlzcbbvg7+.....O:whvnnnbnnnn",
"nnnnnnncf9;+X..XX.X=rlbnnbbbxu;X @6gvnbnnnxa,o.X....O>ejvbnnnnnn",
"nnnnnnbjw=X....... @6fcvvbnncs1o %qlbnnbbvke*...X.X..O<ylbnnnnnn",
"bnbnnnzi<o..X.XXXX.X>yhgfzvbbf5O -yxbbckgjd5+.X..X..X.@4axbnnnnn",
"nnnbnvh8$..X.XX..X..$3067ujcvj9#O2sxxkde808;X...XX.X..X&9gvnnnnn",
"nnnnbcp<o..X......X.X#&#$<qdxzt-%0jxsw4-$&&+..XX.....X.O<icnnnnn",
"nnnnblr=.X..X..XX.....X.XO=qkcd3>uzke-@X...XX.X..XX.X...-rlnnnnn",
"nnnnvg6@..X..XX..XX....X.o=0jvle8dczt;O..X...X..X..X.X..$7gvnnnb",
"nnnnxp,X.X..X..X..X..X.  %5azbcgdzbcf9&X ....X.X..X...X.O,uxnnnn",
"nnbbxy:...XX.X..XX.....Xo-rlvnbccbbbzy:OX..XX..XX..XX....*ekbnnb",
"nnbncs4+..X..X.X.XX..o%>28scnbbnnbnbcs82,=O..X..X..X.X. o>yzbnnv",
"nnnnblt>O...X..X....X=8udhlbnnnnnnnnbzfspe<O...X..X.X..X=0hbnnnc",
"nnnnbvhw-X...X..X..X$7dzvvbnnnnnnnnnnbvcxjt:X.X.X..X...%6dcnnnbc",
"nnnnnbca1O..X..X.X.X:yzbnnnnnnnnnnnnnnnnnvg6+..XX.X....;tzbnnnnv",
"nnnnnnvd3o.XX..X.X.o>pxnnnnnnnnnnnnnnnnnnvg6@.....X.X.X,ixnbnnnb",
"nnnbnnvs1O...X..X...*wjvbnnnnnnnnnnnnnnbvly,X.X.X..X..X>icnbnnnn",
"nnnbnbcp<X..X..X..X.+1tgkxbnnnnnnnnnbvxlgy4#..XXX.X...X:uxnbnnnn",
"nnnnnble-..XX..X.X..X@:5qujvnnnnnnnbvhyw7>#..X...X..X..*wkbnnnnn",
"nnnnnvf6@.X..X..X...  o@&2ixbbnnnnnnxy1*$X  ..X.X.XX...@5svnnnnb",
"nnnnnvs3O..XX...   X@->137axnnnnnnnbxa721,=@.   .....X o<pcnnnnn",
"nnnbnbje:o..XXXO@#$:7rasdglbnnnnnnnnvzgdsat7-+OoX ....X%7dcnnnnn",
"nnnnnbvgw:O .+;468qufzcvvvbbbnnnnnnnbbvvvczdr743<-#X.X%5azbnnnnb",
"nnnnnnnche<$X*0aghkzvbnnbnnnnnnnnbnbnnnnnbbclgfdaw:o+;7azbbnnnnb",
"nnnnbnnbvjt>o=tkvbvbnbnnnnbnbnnnnnnnnnnbnnnbbvvvza1o-qfzbnnnnnnn",
"nnnnbnnnbcd3o%9gvnnnnbnbnbnnnnbnnnbnbnnnnnnnnnnbkt;O<ixbnnnbnnnn",
"nnnnnnnbnbh7+X>rkbbnnnnnnnbnnnbvcvnnnnnnbnbnnnvky3+o3svnnnnnnnnn",
"nnnnnnbnnbzy,@$3plcbnnbbnnnnnbvjfzbnnnbnnnnbbcli2$+*9jvnnnnnnnnn",
"nnnnnnnnnbvjy9438razvnnnbnbnnbzyqgvbnbnnbnnbxdt8125qsxnnbnnnnnnb",
"nnnnnnbnnbbvzha0>;5pxbbnnnnnbvh92acnnnnnnbncf8>,8ifjcbbnnnnnnnnn",
"nnnnnnnnnnnbbcf7$.%0hvnnbnnnbly,-qhvbnnbnnbjw=o$5sxbnnnnnnnnnnnn",
"nnnnnnnnnnnnnci,o O<thcvxcbblu2#+>rkbbccvvji2O o:tznnnnnnnnnnnnn",
"nnnnnnnnnbbnbkw&..X#>9pdiakvh9%.X@5fclsidsw1$X  $9jbnnnnnnnnnnnn",
"nnnnnnnnnnnbbj0# X.Xo&24,2uljw&..#7gku4,43=+o.. #7gbnnnnnnnnnnnn",
"nnnnnnnnnnnnbke& .X..X++X@3pkp<o.;rhp3@X++X..XX.%0jbbnnnnnnnnnnn",
"nnnnnnnnnbnbbxa4# ....   .$8dg9#@5aa6%..  .X...@2ixbnnnnnnnnnnnn",
"nnnnnnnnnnnnbbzp6=@oXX+=-$o:yhy;-egy-X#&&+X.X+&3ulbbnnnnnnnnnnnn",
"nnnnnnnnnnnnnbbzdt6<:,5ey6=>ykd4<pku>=4wq4:;>3walvnnnnnnnnnnnnnn",
"nnnnnnnnnnnnnnnbvlhaupfkldqegch85fxgewdlkditidkxnnnnbnnnnnnnnnnn",
"nnnnnnnnnnnnnnnnbbvcxxcbbxkkcvlq9hvckkcbvcxzxcvnnnnnnnnnnnnnnnnn",
"nnnnnnnnnnnnnnnnnnnbnbnbnnbbbnzuylbbbbbbnnbbbnnnnnnnnnnnnnnnnnnn"
};
