/* XPM */
static char *_d962bbd97934b3e93ada88b1fd12a28ek4SHWi0T5hOLtnD[] = {
/* columns rows colors chars-per-pixel */
"64 64 54 1 ",
"  c gray17",
". c gray18",
"X c #323232",
"o c gray21",
"O c #393939",
"+ c #3C3C3C",
"@ c gray26",
"# c gray27",
"$ c #4B4B4B",
"% c #4E4E4E",
"& c #535353",
"* c gray34",
"= c gray35",
"- c #5F5F5F",
"; c #626262",
": c gray40",
"> c #686868",
", c gray43",
"< c gray44",
"1 c #767676",
"2 c #7B7B7B",
"3 c gray50",
"4 c gray51",
"5 c gray52",
"6 c #888888",
"7 c gray56",
"8 c #929292",
"9 c gray59",
"0 c gray60",
"q c #9D9D9D",
"w c #A2A2A2",
"e c #A4A4A4",
"r c #AAAAAA",
"t c gray68",
"y c gray69",
"u c gray71",
"i c #B9B9B9",
"p c #BCBCBC",
"a c #C0C0C0",
"s c gray78",
"d c #CACACA",
"f c gray81",
"g c gray82",
"h c #D5D5D5",
"j c gray85",
"k c gray87",
"l c gray89",
"z c #E6E6E6",
"x c #E9E9E9",
"c c #EEEEEE",
"v c #F3F3F3",
"b c #F4F4F4",
"n c #FBFBFB",
"m c white",
/* pixels */
"mmmmmmmmmmmmmmmmmmmmmmmmmmmmmmxhkbmmmnmmmmmmmmmmmmmmmmmmmmmmmmmm",
"mmmmmmmmmmmmmmmmmmmmmmnmmnmnmnzafvnmnmmmmmmmmmmmmmmmmmmmmmmmmmmm",
"mmmmmmmmmmmmmmmmmmmmmmmnnmnnnvjtilbnnnnmmmnmnmnmmmmmmmmmmmmmmmmm",
"mmmmmmmmmmmmmmmmmmmmmmmnnbnckgu67igzvnnnnmmmmmmmmmmmmmmmmmmmmmmm",
"mmmmmmmmmmmmmmmmmmmmmbvxlkkdw5<*=<6tgklzcvnmmmmmmmmmmmmmmmmmmmmm",
"mmmmmmmmmmmmmmmmmmmmnlstw094=@+ooO#:600rydxnmnmmmmmmmmmmmmmmmmmm",
"mmmmnmmmmmmmmmmmmmmmvd6;=;:&o.XXXXXO=:-=;7gbmnmmmmmmmmmmmmmmmmmm",
"nmnmmmmmmmmmmmmmmmmmxu<=>32*oXoXXoXO:42;&3dvmmnmmmmmmmmmmmmmmmmm",
"nnmnnmmmmmmmmmmmmmmmcdwwtw3%XXXXXoXo;7rrqehnmmmmmmmmmmmmmmmmmmmm",
"mnnnnmmmmmmmmmmmmmmmnxklhr;oXXoXXXoX+2ikkkvnmmmmmmmmmmmmmmmmmmmm",
"nnnnnmnmmmmmmmmmmmmmmnnnj9$.XoXoXXXXX*rzbnnmmmmmmmmmmmmmmmmmmmmm",
"mmmnnmmmmmmmmmmmmmnmnmmbh7@.XXXXoXXo.%wlmmmmmmmmmmmmmmmmmmmmmmmn",
"nmnnnmmmmmmmmmmmmmmnmmmbd4+.XoXoXXXo.$qlnmmmmmmmmmmmmmmmmmmmmmmm",
"mnnmmmmmmmmmmmmmmmmmnmmxu>oXXXXXoXXoX@5gbnmnmnnmmmmmmmmmmmmmmmmm",
"mnmmmmmmmmmmmmmmmmmmmmnlw*.XXoXXXoXXXo>avmmmmmmmmmmmmmmmmmmmmmmm",
"mmmmmmmmmmmmmmmmmmmmmnnj0%.XXXoXXXXoXX;uxnnmmnmmmmmmmmmmmmmmmnmm",
"mmmmmmmmmmmmmmmmmmmmmnzp2@.XXXXoXXXXoX%9fcnmmnmmmmmmmmmmmmmmmnmm",
"mmmmmmmmmmmmmmmmmmmnnbg7&oXXoXXXXoXooXO;elbmmmmmmmmmmmmmmmmmmmmm",
"mmmmmmmmmmmmmmmmmmmmmbf5+XXXXoXooXoXXoX&qknnmnnmmmmmmmmmmmmmmmmn",
"mmmmmmmmmmmmmmmmmmmmmnkq&.XoXXXXXXXXXXo:yxnmmmmmmmmmmmmmmmmmmmmm",
"mmmmmmmmmmmmmmmmmmmmmnci<OXXXXXXoXoXoX@4fbmmmnmmmmmmmmmmmmmmmmmm",
"mmmmmmmmmmmmmmmmmmmmmmbj0&.XoXoXXXXoXo;tznmmmmmmmmmmmmmmmmmmmmmn",
"mmmmmmmmmmmmmmmmmmmmmnmcp,oXXXXoXXXoX+5gbmnmmnnmmmmmmmmmmmmmmmmm",
"mmmmmmmmmmmmmmmmmmmmmmmng7#.XXXXXXXXX*eznmnmmmmmmmmmmmmmmmmmmmmn",
"mmmmmmmmmmmmmmmmmmmmmmnnzy>+O@+oo+Oo#2svnmmmmmmmmmmmmmmmmmmmmmmm",
"mmmmmmmmmmmmmmmmmmmmmmnvzdq,>2,$*,,;3tjvnmmmmmmmmmmmmmmmmmmmmmmn",
"mmmmmmmmmmmmmmmmmmnnnvxgapuryar<4turussgzvbnnnmmmmmmmmmmmmmmmmmm",
"mmmmmmmmmmmmmmmmnczkjfu7<4rdkxf9wjxjft56yfjllzvmnmmmmmmmmmmmmmmn",
"mmmmmmmmmmmmmmmnzste06<&+-8pkcjrylxhi8=%,6qrruhvnmmnnmmmmmmmmmmm",
"mmmmmmmmmmmmmmnxa6-&*::*:8tiskjyigfppu7;=,>==>wgvnmmmmmmmmmmmmmn",
"mmmmmmmmmmmmmncs6%. @>,;8dlkhkhuafsfzza3;1:O o;qhbnmmmmmmmmmmmmm",
"mmmmmmmmmmmnnbh0*XXX+&*>txnbvvzfhllcbbh8-;*OX.o:ejbmmmmmmmmmmmmm",
"mmmmmmmmmmmmmcp1O.XXo#;8szccbnbvvbbvzzhr1=#ooX.+3dvmmmmmmmmmmmmm",
"mmmmmmmmmmmmmvf7;#oXO&2eiashcnmnnmnxdipu9,%OXO#;9gbnmmmmmmmmmmmm",
"mmmmmmmmmmmnmnxft5&o#=<57qujvmnvvnmcgt084:&++:7tfxnmnmmmmmmmmmnm",
"mmmmmmmmmmmmmmnbzp2&1732qakvnnxjlbmnvji9<23-;wfzvnmmmmmmmmmmmmmm",
"mmmmmmmmmmmmmmmmnj9>qptesxnmmbjufvmnmbky9rt54svnmmmmmmmmmmmmmmmn",
"mmmmmmmmmmmmmnmnnkq,8utqixnnmbd0ixnnnvgq8re35fbnnmnmnmmmmmmmmmmm",
"mmmmmmmmmmmmmmmmnh9&&,,-7fllxzu2qjczzkt:*:-%2svmmmmmmnmmmmmmmmmm",
"mmmmmmmmmmnmmmmmnkw=XXXo;0tras9*<udytt4#X..+3acmnmnmmmmmnmmmmmmm",
"mmmmmmmnnmmmmmmmncs4#XX.+*=-37>+%24:--$oX.X=wjnnnmnmmmmmmmmmmmmm",
"mmmmmmmmmmmnnmmmmnlw=XXXX..X@#+Xo++o...XXXO1pcmmmmmmmnmnmmmmmmmm",
"mmmmmmmmmmmmmmmnmmlw*XXooXXXX.XXXX.XXXXXX.O1svnmmmmmnmmmnnmmmmmm",
"mmmmmmmmmbvbbnmmmbh0%XXoXXXoXXXoXXoXoXoXXXO<pcmmmnmbbbnmmmmmmmmm",
"mmmmmmmbcjffhxbmmnzy,+oXXXoXXXXXXXoXXXoXXo$6fvmmnvlggjxbnmmnmmmm",
"mmmmmnbli0549ujcbmvg9=OXXoXXXoXoXoXXXoXXXO:tlnnbzfr869yhcnmmmmmm",
"mmmmmnzy1$Oo$>qslzzfw>+XXXXXoXXXXXXXXXXXX@1ukxlgu6;@+$:0hbnmnmmm",
"mmmmmbf5O ...o=4wtr93=+XXoXoXXXoXoXoXoXoo+;7rye7>#X.. .;tznmmmmm",
"mmmmmci> XXoXXX@&==%@OoXoXoXXXoXXoXoXoXoXo+%=;*@oXXXoXX@7hbmmmmm",
"mmmmmxy; XoXoXX. ...XXXXXXXXXoXXXXXXXXXXXXX.....XXXXXXXO3fvmmmmm",
"mmmmnle*.XXooXXXXXXXXoXoXXoXXXXXXoXXXoXXoXXXXXXXXoXoXoXo<abmmmmm",
"mmmmnk9#.XXXXXXoXXXXXXXXXoXXXoXoXXoXXXoXXXXXXXXXXXXXooXo:yvmmmmm",
"mmmmbh7O.XXXXoXXXoXoXXXXoXXXoXXXXXXoXXXXoXoXXoXoXooXoXoX*exnmmmm",
"mmmmnj7@ XoXXXoXXXXXXoXoXXXoXXXooXXXoXoXXXXXXXXXXXXXXXXX-rxmmmmm",
"mmmnnlr,#XXXXXXXXoXXoXXXoXoXoXoXXoXoXXXoXXoXXoXXXXX.XXO=8dcmnmnm",
"mmmmmvjy6>%OXXoXXXoXXXXoXXXXXXXXXXXXoXXXXXXXXXoXoXXX@=1qdcnmmmmm",
"mmmmmmbzgu8;OXXXXXX.X.XXXXoXXXXXXoXXoXoXX...XXoXX.X%4eajvnmnmmmm",
"mmmmmmmnbxfw,#oXXX#-;&OXXXXXXoXoXXXoXoXXo$--#XXXo+=7alvnnmnmmnmm",
"mmmmmnmnmmvjy7:$O&4ry0,#oXXXXoXXXXXX.XXO=6rr4&oO=3wfcnnmmmnmnmnm",
"mmmmmmmmmmnvzgt620alxhy4-%@oXX.X.XXX+#%,0dzzs9110ajvmmmmmmmmmmmm",
"mmmmmnmnmnnnmvldshcnmblae84;Oo#%%@X%259yhcnbchaihcnnmmmmmmmmmmmm",
"mmmmmmmmmmmmmmbvvbnmmmbxkhsq,>5092:6ifhzvnmmmbvcvnmmnmmmmmmmmmmm",
"mmmmmmmmmmmmmmmmmnmmnmmnnvcgyysjhptszvbmmnnmmmmnmnnmmmmmmmmmmmmm",
"mmmmmmmmmmmmmmmmmmnmnmmnmmmvzzcnbxzcnmmmnmmnmmmmnmmmmmmmmmmmmmmm"
};
