/* XPM */
static char *b7e757946f144013c11564ca91c68d787YIAUL3ibVHeayYi[] = {
/* columns rows colors chars-per-pixel */
"64 64 54 1 ",
"  c #2A2A2A",
". c gray18",
"X c #323232",
"o c #343434",
"O c #3A3A3A",
"+ c gray24",
"@ c #414141",
"# c gray28",
"$ c #484848",
"% c #4E4E4E",
"& c #505050",
"* c #565656",
"= c gray35",
"- c gray37",
"; c gray39",
": c #656565",
"> c #686868",
", c #6C6C6C",
"< c gray45",
"1 c gray46",
"2 c #797979",
"3 c gray49",
"4 c gray51",
"5 c gray53",
"6 c #888888",
"7 c #8E8E8E",
"8 c #939393",
"9 c #979797",
"0 c #9A9A9A",
"q c #9D9D9D",
"w c gray63",
"e c #A4A4A4",
"r c #AAAAAA",
"t c #AFAFAF",
"y c gray70",
"u c #B6B6B6",
"i c gray73",
"p c #BCBCBC",
"a c #C0C0C0",
"s c #C5C5C5",
"d c gray79",
"f c #CECECE",
"g c gray82",
"h c #D7D7D7",
"j c gray86",
"k c gray87",
"l c gray88",
"z c #E7E7E7",
"x c #E9E9E9",
"c c gray93",
"v c #F3F3F3",
"b c gray96",
"n c #FBFBFB",
"m c white",
/* pixels */
"mmmmmmmmmmmmnnvzlzvmmmmmmmmmmmmmmmmmmmmmmmmmmbccbmmmmmmmmmmmmmmm",
"mmmmmmmmmmnncjsrqrgcnnmmmmmmmmmmmmmmmmnmmmmmnzsudlxvmmmmmmmmmmmm",
"mmmmmmmmmmvki02-%:0djlvnnmmmmmmmmmmmmmmmmbxzhi5>5eidlbnnmmmmmmmm",
"mmmmmmmmmnlt<&+oXO-48walbmmnmnmmmmmmmmnnchiw71$O#=:4ehbmnmmmmmmm",
"mmmmmmmmmvd4@XXooXO@$=2rkbmmmnmmmmmmmnncd0>&$+oXXXo@>rlmmmmmmmmm",
"mmmmmnnnvkr-oXXoooXXXX+<pxnmmmmmmmmmnmbkq=OoXXooooXX@5dcbnnmmmmm",
"mmnbxzlkgt2@XXoXXoXoXXX$6dcnmmmnmmmmnvkt,oXoXooXXooXo-9ahlcbnnmm",
"nbzgyw084;#oooXooXoXoXXo&6acbnnnbnnnvhw,@XXXXoXooXoXo+&<6qudkxvn",
"cgy6;%$#OXXXXoXoXoXoXoXXX%7dlvvzjzcche;OXXoXoXoXXoXoXoXo+&:29ygx",
"s8;@X..X.XXooXoXoXoXoXoXXo&4rsse8yda0>+XXoXoXoXooXoXoXXX.XXo#:7p",
"w=o.XXoXXXoXXoXoXoXoXoXXX.X+=12=$:31&OXXoXoXoXoXXoXoXoXoooX. .$7",
"u5:$oXXXoXXooXoXoXoXoXoXXXX..ooXXoOo..XXXoXoXoXooXoXoXoXXoXXo@:q",
"zdt7>#XXXoXoXoXoXoXoXooo#*#+$&#oXO%&#+%%+ooXoXoXXoXoXoXoXo@*>6tg",
"nvzgr1+XoXoXoXoXoXoXoXX+,97489<+X&5q6485&XXXXoXooXoXoXoXXO-8udzb",
"mmmvh0&.XoXoXoXoXoXoXo.+3iddhd7#X;rgfssq=XXooXoXXoXoXoXXXO,ykvnm",
"mnmmxr=.XooXoXoXoXoXoXXO>tkcxf6@X-tlvzs7#XoXXoXooXoXoXoXXo,ixnmm",
"mmmmzt*.XooXoXXoXoXoXoXX@4ijfw;oX$5skhw-oXoXoXoXXoXooXooXO,pvmmm",
"mmmnzr*.oooooooXoXoXoXXXX%297:@ooo&5w9:OXoXoXoXooXoXXoXX.+3svmmm",
"mmmmxu;XXoooooXoXoXoXooXXo#%$OoooXo$=&+XoXoXoXoXXoXoooooX@6fvmmm",
"mmmnvd4+@%%OoXoXoXoXoXoXXXO#+oooXXoO#+XXXXXoXoXooXoXo#&$X%9hnmmm",
"mmmmnle=>85*oXoXoXoXXXoO@O@$#ooXoXo@$#O+OooooXoXXoXX@<72@*elnmmm",
"mmmmmca4qfa4@XXoXoXooXO-3,$+OoXoXXXO+@=1:+XooXXooXXX*0aw*>uxmmmm",
"mmmmmbjtsclw&XoXoXXXX.@3yw:oXXXXXXXXX$5r8$XXXoXXXoXX:thp37fvmmmm",
"mmmmmmckxnci,oXXXoXXX.O<ew:XXXXoXXXXX$5e5@XXXXXXoXXO<axkpsxnnmmm",
"mmmmmnnnnnbf5O.XoXo+oXX#,1-OXXXXoXoXo$<1=oooO+oXXXX#7gbvcvnmmmmm",
"mmmmmmmmmmnlw=OXo#;,*OXX=52%oXXooXXo@:3:+Xo$:<=OXX@<yzmmmmmmmmmm",
"mmmmmmmmmmmvd0,=;3qe2#XX-88=oXXoXoXX#15:OXo=8t0<=-4tjbmmmmmmmmmm",
"mmmmmmmmnmnnchirrisy2@Xo$,1&oXoXoXXX+-:%oXX*9dgietslbmnmmmmmmmmm",
"mmmmmmmmmmmmnbczzji4&oXXo++OXXXoXoXoooooXoX+>tkxzxvmmmmmmmmmmmmm",
"mmmmmmmmmmnmmmnbcf6#XXoXXXXXoXoXoXoXoXXXoXXX+2pxbnmmnmnmmmmmmmmm",
"mmmmmmmmmmmmmbxhde:o.oXoXXoXXoXoXoXoXoXoXoXXX&7phlvmmmnmmmmmmmmm",
"mmmmmmmmmmmnbky84:#XoXoXXoXooXoXoXoXoXoXoXoXXO*17tgvnmmmmmmmmmmm",
"mmmmmmmmmnmnxu,#OooXoXoXoXoXoXoXXoXoXoXooXoXoXXo#;qhbmmmmmmmmmmm",
"mmmmmmmnmmmmk9# .XXoXoXoXoXoXoXooXoXoXoXXoXooXXX.O>uxnmmmmmmmmmm",
"mmmmmmmmmnmbj6O.XooXoXoXoXoXoXoXXoXoXoXooXoXXoXooX&wkmmmmmmmmmmm",
"mmmmmmmmmmmbg5OXXXXoXoXoXoXoXoXooXoXoXoXXoXooXoXXX&0knmmmmmmmmmm",
"mmmmmmmmnmncp<oXoXoXoXoXoXoXoXoXXoXoXoXooXoXoXoXXX%0jnmmmmmmmmmm",
"mmmmmmmnmmnxr=XXXoXoXoXoXoXoXoXooXoXoXoXXoXoXoXoXX@5fnmmnmmmmmmm",
"mmmmmmmmnmmle&.XoXoXoXoXoXoXoXoXXoXoXoXooXoXoXoXXX+3dbmmmmmmmmmm",
"mmmmmmmmmmnzw&XXXoXoXoXoXoXoXoXooXoXoXoXXoXoXoXoXX+2sbmmnmmmmmmm",
"mmmmmmmmnmbg8#XXoXoXoXoXoXoXoXoXXoXooXoXoXoXoXoXoXo;rlnmmmmmmmmm",
"mmmmmmmmmnzt>ooXXoXoXoXoXoXoXoXooXoXXoXoXoXoXoXoXoX@3svmnmmmmmmm",
"mmmmmmmmmvf4@XoooXoXoXoXoXoXoXoXXoXooXoXoXoXoXoXoXXo;txmmmmmmmmm",
"mmmmmmmmmcp<oXoXXoXoXoXoXoXXXoXooXoXXoXoXoXoXoXoXoXX&wlmnmmmmmmm",
"mmmmmmmmnva2OXoXoXoXoXoXXXXXXXXoXoXXXooXoXXoXooXoXXX&wlnnmmmmmmm",
"mmmmmmmnmbg6@XXoXoXXXoXXX.X..XXXoXX....XXoXXoXXoXoXX*wzmnmmmmmmm",
"mmmmmmmmmbg6+XXXooXXXX..XoO+@OXXXXo$%@ooX.XXX.XXXXXX=elmmmmmmmmm",
"mmmmmmmmmng6@XooXX...o%;<1355<$oXO-69521:%X  ...XXXX-rxnmmmmmmmm",
"mmmmmmmmmbk9#.....O%;29tiasffy2#O;0dhfsay8>*=-&o  .X>icmmmmmmmmm",
"mmmmmmmmmmxy;oO#*>30yshzcvvbvly,=9gcnbvczgirtt01-#o%7fbmmmmmmmmm",
"mmmmmmmnmmvgq348eidjzcnnmnmmmbj93pcmmmnmmbxlzzjat848axnmmmmmmmmm",
"mmmmmmmmmnncjffhlcbbmmmmmmmmmmxuwjbmmnmmmmmnmnbczhfgxnmmmmmmmmmm",
"mmmmmmmmmnmnbvbnnmmmmmmmmmmnmmvhfxnmnmmmmmmmmmmmnnvbmmmmmmmmmmmm",
"mmmmmmmmmmnnmmnmnmnmmmmmmmmmnmnvcbmmmmmmnmmnmnnmmmmmmmmmmmmmmmmm",
"mmmmmmmmnnvvbmmmmmmnnmmnmmmmmnmnnmmmmmnmnmmmmmmmnmnnvvbmnmmmmmmm",
"mmmmnmnbxjssjvnmnmmmmmmmmnmnmmmnmmmmmmmmmmmnmnmmmmncfphcnmmnmmmm",
"mmmmmmblp932ehcnmnmmmmmmmmmmmmmmmmmmmmmmmmmmmnnnmbcf9<0dxbmmmmmm",
"mmmmmmcp3$oO>qajlzzxvvvvvbnmnnmmmnmmnnnbvvvbvxzzlja9*O=7pzbmmmmm",
"mmmmnmxi,oXXO*18etyisfssdhklxvnmmmnvxzjgssfgdutrw82&oXX*0hbmmmmm",
"mmmmnmbf6@XoX.X@*==>352249qrihcnmbzdirq632573:=*&@OXXXX=wknmmnmm",
"mmmmmmnk0$....  XO@$->,<2569esxnmvht975431<>-$+o.  .XXX>uxmnnmmm",
"mmmmmmnzt;XoO+%;1589wtipassffkvnmnlfassddpute964<-%+XX@3svmmmmmm",
"mmmmmnnvf922369taghjlxxvvvbbbnnmmnbvvvvbvvxzljgdpr04,>3tknmmmmmm",
"mmmmmmmmcgaadgjlcbbbnmnmmmmmnmmmnmnmmmmmmmmmnbbbcljdpiskbmnmmmmm"
};
