/* XPM */
static char *ca150ae5264243ecdceff248942242d8jZgdlrGeHXKPnfxi[] = {
/* columns rows colors chars-per-pixel */
"64 64 54 1 ",
"  c gray17",
". c #2F2F2F",
"X c gray19",
"o c #343434",
"O c #393939",
"+ c #3F3F3F",
"@ c #434343",
"# c gray27",
"$ c #4B4B4B",
"% c gray31",
"& c #515151",
"* c #555555",
"= c #585858",
"- c gray36",
"; c gray38",
": c #676767",
"> c gray42",
", c #6C6C6C",
"< c gray45",
"1 c #747474",
"2 c #7B7B7B",
"3 c gray49",
"4 c gray51",
"5 c #868686",
"6 c #898989",
"7 c gray55",
"8 c gray57",
"9 c gray58",
"0 c #9B9B9B",
"q c #9F9F9F",
"w c #A0A0A0",
"e c #A4A4A4",
"r c #A9A9A9",
"t c #AEAEAE",
"y c #B2B2B2",
"u c gray71",
"i c #B9B9B9",
"p c gray",
"a c #C0C0C0",
"s c #C6C6C6",
"d c #C8C8C8",
"f c gray81",
"g c #D2D2D2",
"h c gray83",
"j c #DADADA",
"k c #DDDDDD",
"l c #E2E2E2",
"z c #E7E7E7",
"x c #EAEAEA",
"c c #ECECEC",
"v c #F3F3F3",
"b c #F4F4F4",
"n c #FBFBFB",
"m c white",
/* pixels */
"mmmmmmmmmmmmmmmmmmmmbkywgbmmmmmmmmmmmmzurhbmnmmnmmmmmmmmmmmmmmmm",
"mmmmmmmmmmmmmmmmmmmmba1<icnmmmmnnmmmmbk9<txnnmmmmmmmmmmmmmmmmmmm",
"mmmmmmmmmmmmmmmmmmmmct;>pcnnmnnccnmmmnl8*7hnmnmnmmmmmmmmmmmmmmmm",
"mmmmmmmmmmmmmmmmmmmmvy::icnmnnzsgvmmmnj6%5gnmmmmmmmmmmmmmmmmmmmm",
"mmmmmmmmmmmmmmmmmmmmvu:*wlbmnbhwuxnnncp,#4gbnmnmmmmmmmmmmmmmmmmm",
"mmmmmmmmmmmmmmmmmmmmcu;+1uhkzzd7ekzljs8%+5gnmmmmmmmmmmmmmmmmmmmm",
"mmmmmmmmmmmmmmmmmmmmvu:O$,58ess7qdi062*O#7hnmmnmmmmmmmmmmmmmmmnm",
"mmmmmmmmmmmmmmmmmmmmbs1+Xo+@>rp68r6&+Ooo=rznnmmmmmmmmmmmmmmmmmnn",
"nmmmmmmmmmmmmmmmmmmmnh7$oXXX%59<<4:O.XXO>ivmnmmmmmmmmmmmmmmmmnnx",
"bmmmmmmmmmmmmmmmmmmmmlw&oXoXO&*$#%@oXooo:pvmmnmnmmmmmmmmmmmmmmnk",
"bmmmmmmmmmmmmmmmmmmmmcy:oXXoXXXoXXXooooo,avmmmmnmmmmmmmmmmmmmnbz",
"mmmmmmmmmmmmmmmmmmmmmvp,OXoooXXoooXoooXO3dbmnmmmmmmmmmmmmmmmmmmb",
"mmmmmmmmmmmmmmmmmnmmmbf4@XoXoXoXooooXoX@6hnmnmmmmmmmmmmmmmmmmmnm",
"mmmmmmnmmmmnmmmmmmmmmnk9%XXooooooooXoXo*wlmmmmnmnmmmmnmmmnmmmmnm",
"mmmmnmnmnnmmmmnmmnnnbbzt;oXooXooXoXooXO,uxvbbmmmnmnmmmmmmmmmmmmm",
"mmmmmmmmnmmnmnmmmncjffaq;OooooXooooooo+>waadkvnmmmnmmmnnnmmmmmmm",
"mmmmmmnbccbnnmmnbcsq422:%oXXoooXoXoXoXo%:<<3ekvvnnmnbcxcnmmmmmmm",
"mmmnmnnlaiskvmbljfq;@+OOooooXooooooooooooOo#2ufjvnbxgiugbmmmmmmm",
"mmmmmmbh9,2ylnvfr0<#oooXXoXooXoXoXoooXoXXoXO=60ixnvs8,3pvnmmmmmm",
"mmmmmmbg6#@3pxvf7;@oooOoooooooooooXooooXO+oX+&<yzbh0*+:ivmmmmmmm",
"mmmmmmvd3+ &qjcf6$XXXoOoXoooXoXooooXooooO@oXoo-wkcs1OX-tcmmmmmmm",
"mmmmmnva<o @7sju1@XooooooooXooooXoooXoXooooXXX#3ijp,oX&qlnmmmmmm",
"mmmmmmxu:oXO>8w02$XoXoooXoXoooXooXoXooooXXoooO%>5ew;oX$8jnmmmmmm",
"mmmnmmcu>oXo#%>88;+XoooooooooXooooooooXXooXoX@,82,:@oo*0jnmmmmmm",
"mmmmmnvd4+XoXo1yy2+XoooooooXXooooXoooXoXooXoo%7ae;OXXo,icmmmmmmm",
"mmmmnmnk0$XX.#9fa5@XooXoXooooooXooXoXoooXooXX&qjd2OXo+2dbmmmmmmm",
"mmmmmmmle&.XO>ykf7$XoXoooXoXXoXoooooXooooooXO:tzkq*oXO2sbmmmmmmm",
"mmmmmmnze*.o-qhvlt>@ooXoooooooooXoXooooXXooX&8dvca4$X+1sbmmmmmmm",
"mmmmmnnzt-X&8fcmbh9*oXoXoXXoooXoXoXoooooXoo+,pxnnzi2$+4gbmmmmmmm",
"mmmmmmmcy;$5axnmmxy>OooooooooXoooooooXoXXoo@5gnnmnly1%6hnmmmmmmm",
"mmmmmmncp33uzbmmmvp1+XXXooooooooooXoXoooooX$9knmnmblt3wlbmmmmmmm",
"mmmmmmmbjipknmmmmng6$XoooXoXoXoXoXoooooXXX+<ixnmmmmbjpgcnmmmmmmm",
"mmmmmmmnvxcbnmmmmmxr:ooXXoXoXoXoooXoooooXO=wknnmmmmnbcvnnmmmmmmm",
"mmmmmmmmmmmnnnmnmmbf6%oooooooooooXoooXXoo#5fvmmmmnmmmnmmnmmmmmmm",
"mmmmmmmmmmmmmmmmmmmxy>+XooXoooXoooooooooo=rznnmmnmmnnmmmmmnmmmmm",
"mmmmmmmmmmmmnmmnnmmbf4#XoXoooXoooXoXXoXoo>ivmmmnmmmmmmmmmmmmmmmm",
"mmmmmmmmmmmmmmnmmnnvd5#XooXoXoooXoXooXoXX-rlbnmmmmmmmmmmmmmmmmmm",
"mmmmmmmmmmmmmmmmmnchw>%+oooooooXoooooooO$&2yjcnmmnnmmmmmmmmmmmmm",
"mmmmmmmmmmnnmnmnbzs0:-2>$oooXooXooXoXo+*2,%:9sxbnmmmmmmmmmmmmmmm",
"mmmmmmnmmmnmnmbxhu4%O;00<#XooooooXoooo%4q4$o%5ikvbmmmmmnnmmmmmmm",
"mmmmmmmmmmnnbcku8>$XX&6e4%XoXoXXoXXoXO;79,+XX#<wslcbnmmnmmmmmmmm",
"mmmnmnmnmmvljaw,@XXXoO&1>#oXo@@Oo+ooX+=<-+oooXo*3wphxnmmnmmmmmmm",
"mmmmmmmmmbju82&oXoXoXoXOOoXo$<>#$;=+Xo@OXXXooXXXO%,0dvmmmmmmmmmm",
"mmmmnmnnbzi1#X.XooooooXXXoXO,e9;:08-OX..XooooooX...*0jcnnmmmmmmm",
"mmmmmmnxgi8*.XoooooXX.....X=qfu<3as8&X .XXXooXXoXXXO<rajvnmmmmmm",
"mmmmmnca81;@XXoXXoo.o@$#@$=7dzd48jxa4&$@oX.XoooXXooo#:1wgvmmmmmm",
"mmmmmbg7%XooXooooXX#;58778qscbg7elblu0961=#o..XXXoooo.o;ekbmmmmm",
"mmmmmxy:XXXoXooXXO*5tdhgghkcnnhqyxmnzhhgpr7<*+..XoooXXX+2avnnnmm",
"mmmmmlw&.XXoooXX@,wslvbbbnnnmnjepcmnnbnbclgpw5;@X.XooXoo;yxmmnmm",
"mmmmmk9$XXoooXX%3yjvnmmmmmmmnnkuscnmmmmmmmbcldt6:@Xooooo=rzmmmmm",
"mmmmbg5@XooooO*7pzbnmnmnmmmmmnlpfvmmmmmmmmmmnvzfr2#ooooo&0knmmmm",
"mnmmcu>oXoXoO;qdxnmmmmmmmmmmmmxfjvmmmmmmmmmmmmmvly>OXoXo@3dbmmmm",
"nmmmkq&XoooX&9gcnnnmmmnmmmmmmnvzxnmmmmmmmmmmmmnnbg5@.XoXo>uvnmmm",
"mmmnj8#XXoXX>uxmmmmmmmmmmmmmmmnbnnmmmmmmmmmmmmmmnlq%XooXX;ucmmmm",
"nmmmk0%XooXO4dvmmmmmmmmmmmmmmmmmnmmmmmmmmmmmmmmmmcp<Oooo+>icnmmm",
"mmmnxy>OoXX&wknmnmmmmmmmmmmmmmmmmmmmmmmmmmmmmmmmmbh7#XoO*7dvmnmm",
"mnmnvg7%XXX>icmmmmmmmmmmmmmmmmmmmmmmmmmmmmmmmmmmmnzw*XX+,ulnmmmm",
"mmmmnlq&.XX<avmmmmmmmmmmmmmmmmmmmmmmmmmmmmmmmmmmmnzr*XXO<pvnnmmm",
"mnmmnj9#..X2svmnnmmmmmmmmmmmmmmmmmmmmmmmmmmmmmmmmnxy-X.X-txnmnmm",
"mmmmvd3O..$8hbmmmmmmmmmmmmmmmmmmmmmmmmmmmmmmmmmmmmva2@..$9jnnmmm",
"mmmnzt;X+=4pxnmmmmmmmmmmmmmmmmmmmmmmmmmmmmmmmmmmmmblt<%++2avmmmm",
"nmmnzr,>4wsznmmmmmmmmmmmmmmmmmmmmmmmmmmmmmmmmmmmmnmbku0416svmmmm",
"mmmmvfyydlcnnmnmmmmmmmmmmmmmmmmmmmmmmmmmmmmmmmmmmmmmbxjdadlnmmmm",
"mmmmnczxvnmmmmmmmmmmmmmmmmmmmmmmmmmmmmmmmmmmmmmmmmnmmmnvvvbmnmmm"
};
